<svg width="20" height="20" viewBox="0 0 20 20" fill="none" xmlns="http://www.w3.org/2000/svg">
<path d="M14.9897 5.88837C15.1472 5.94565 15.7322 6.51733 15.8041 6.70332C15.8973 6.94428 15.9125 7.18566 15.8208 7.42845C15.7769 7.54708 15.7106 7.6561 15.6256 7.74954C15.5294 7.85632 15.413 7.94417 15.3096 8.04356C14.8568 8.47956 14.4591 8.94608 13.9868 9.36459C13.7695 9.55723 13.5747 9.81351 13.3632 10.0205C13.1417 10.2373 12.8993 10.4562 12.6798 10.6774C12.6431 10.7144 12.4603 10.9089 12.4303 10.925C12.3541 10.9359 12.3013 11.0104 12.2471 11.0696L12.2431 11.0548L12.3127 10.9606C12.2893 10.9587 12.2703 10.9745 12.2461 10.9876C12.2048 11.0486 12.2402 11.095 12.204 11.1107L12.1752 11.096C12.1291 11.1215 11.9614 11.2903 11.9374 11.3393L11.9595 11.3768L11.9316 11.3895L11.9081 11.3777C11.8699 11.4567 11.6689 11.4926 11.6782 11.5944C11.7435 11.578 11.7869 11.4669 11.8403 11.4573C11.8181 11.4906 11.8036 11.5128 11.7768 11.5434L11.7727 11.5851C11.5186 11.8551 11.2471 12.1279 10.9914 12.3991C10.779 12.6244 10.5202 12.8392 10.2978 13.0667L9.24905 14.1203C9.13507 14.2329 8.955 14.4303 8.84714 14.5254C8.79422 14.5282 8.78768 14.5423 8.75394 14.5739L8.74095 14.5718C8.76059 14.5464 8.78632 14.5192 8.79264 14.4892C8.70363 14.5128 8.61954 14.6498 8.47523 14.6873C8.37812 14.7125 8.21384 14.7171 8.12525 14.6688L8.14513 14.6457C7.95458 14.5169 7.99351 14.521 7.85297 14.3672C7.78393 14.2917 7.61757 14.1279 7.5388 14.0537C7.35569 13.8813 7.13334 13.6957 6.95787 13.5139C6.86207 13.4146 6.75965 13.2829 6.65663 13.1757C6.51218 13.0255 6.36686 12.88 6.22392 12.7287C6.14686 12.6472 6.11128 12.65 6.02559 12.5913C6.03445 12.5973 5.97288 12.5083 5.95857 12.4937C5.84632 12.3793 5.72803 12.2734 5.61829 12.1564C5.58554 12.1215 5.55182 12.0384 5.54272 12.032C5.47543 11.9848 5.42603 11.9362 5.36616 11.8786C5.22124 11.7391 5.07806 11.5785 4.92916 11.4453C4.81281 11.3412 4.68694 11.2389 4.58661 11.1147C4.54632 11.0648 4.47254 10.8939 4.44319 10.8268C4.39558 10.7179 4.40767 10.543 4.44211 10.4272C4.45431 10.3862 4.48684 10.2786 4.51752 10.2436C4.7295 10.0016 5.10261 9.56444 5.39681 9.44952C5.52009 9.40136 5.87111 9.47202 5.99151 9.41421C5.99403 9.41265 5.99652 9.41108 5.99903 9.40952C6.00064 9.42994 6.03565 9.49127 6.04815 9.50124C6.3892 9.76265 6.65106 10.1375 6.97336 10.4193C7.39484 10.7878 7.74154 11.2112 8.15199 11.5888C8.23757 11.6675 8.38818 11.7582 8.49444 11.655C8.757 11.4001 8.99868 11.1212 9.25007 10.8555C9.466 10.6305 9.71915 10.4448 9.92985 10.2098C10.0322 10.0957 10.1577 9.98829 10.2602 9.87339C10.4444 9.66678 10.6083 9.45608 10.8383 9.29804C10.9896 9.18451 11.1566 8.9494 11.3158 8.82902C11.362 8.79414 11.4337 8.67033 11.4883 8.61532L12.7982 7.29781C12.9323 7.16178 13.0751 7.04552 13.2126 6.91369C13.4201 6.71481 13.6143 6.49944 13.8277 6.30653C13.8797 6.25947 13.8787 6.1965 13.9066 6.17698C13.9508 6.14615 14.1965 5.94284 14.2277 5.93306C14.4209 5.8726 14.7868 5.87893 14.9897 5.88837Z" fill="url(#paint0_linear_13_436)"/>
<circle cx="10" cy="10" r="9.11765" stroke="url(#paint1_linear_13_436)" stroke-width="1.76471"/>
<defs>
<linearGradient id="paint0_linear_13_436" x1="10.147" y1="5.88232" x2="10.147" y2="14.7059" gradientUnits="userSpaceOnUse">
<stop stop-color="#9BF7C3"/>
<stop offset="1" stop-color="#7B77E1"/>
</linearGradient>
<linearGradient id="paint1_linear_13_436" x1="10" y1="0" x2="10" y2="20" gradientUnits="userSpaceOnUse">
<stop stop-color="#9BF7C3"/>
<stop offset="1" stop-color="#7B77E1"/>
</linearGradient>
</defs>
</svg>
